<svg viewBox="0 0 1048 1024" version="1.1" xmlns="http://www.w3.org/2000/svg" width="32.75" height="32"
  xmlns:xlink="http://www.w3.org/1999/xlink">
  <path
    d="M406.183406 0.419214a147.772926 147.772926 0 0 0-147.80786 147.772926v86.812227h221.694323a50.200873 50.200873 0 0 1 36.681223 49.606987H147.80786a147.737991 147.737991 0 0 0-147.772926 147.772925v195.353712a147.737991 147.737991 0 0 0 147.772926 147.772926h60.960699v-138.480349a147.353712 147.353712 0 0 1 147.283843-147.772926h271.30131a147.353712 147.353712 0 0 0 147.772926-147.318777V148.19214a147.737991 147.737991 0 0 0-147.772926-147.772926h-221.170306z m-37.20524 83.179039a31.790393 31.790393 0 0 1 37.20524 36.681223 37.834061 37.834061 0 1 1-73.886463 0 31.650655 31.650655 0 0 1 36.681223-36.681223z"
    fill="#338EFF"></path>
  <path
    d="M839.161572 248.454148v138.48035a147.248908 147.248908 0 0 1-146.724891 147.737991h-271.685589a147.283843 147.283843 0 0 0-147.807861 146.724891v194.305677a147.772926 147.772926 0 0 0 147.807861 147.772926h221.170305a147.772926 147.772926 0 0 0 147.772926-147.737992v-86.812227h-221.729257a50.165939 50.165939 0 0 1-36.646289-49.606987h368.978166a147.772926 147.772926 0 0 0 147.772926-147.80786v-195.318777a147.772926 147.772926 0 0 0-147.772926-147.807861h-61.030567zM341.065502 481.676856l-0.209607 0.209607c0.628821 0 1.292576 0 1.956332-0.209607h-1.746725z m337.956332 376a39.231441 39.231441 0 0 1 36.681223 45.973799 36.716157 36.716157 0 0 1-36.681223 36.716157 31.790393 31.790393 0 0 1-37.20524-36.716157 39.30131 39.30131 0 0 1 37.20524-45.799127z"
    fill="#494A6E"></path>
</svg>
